{
  "accessors": [
    {
      "bufferView": 0,
      "componentType": 5125,
      "count": 9744,
      "max": [
        1691
      ],
      "min": [
        0
      ],
      "type": "SCALAR"
    },
    {
      "bufferView": 1,
      "componentType": 5125,
      "count": 9744,
      "max": [
        3383
      ],
      "min": [
        1692
      ],
      "type": "SCALAR"
    },
    {
      "bufferView": 2,
      "componentType": 5125,
      "count": 4824,
      "max": [
        4391
      ],
      "min": [
        3384
      ],
      "type": "SCALAR"
    },
    {
      "bufferView": 3,
      "componentType": 5126,
      "count": 4392,
      "max": [
        -0.15808013081550598,
        1.5540587902069092,
        0.009474597871303558
      ],
      "min": [
        -0.3312172591686249,
        1.2862540483474731,
        -0.12214050441980362
      ],
      "type": "VEC3"
    },
    {
      "bufferView": 4,
      "componentType": 5126,
      "count": 4392,
      "max": [
        0.9998549818992615,
        0.9997987747192383,
        0.9998914003372192
      ],
      "min": [
        -0.99908846616745,
        -0.9992747902870178,
        -0.9997493624687195
      ],
      "type": "VEC3"
    },
    {
      "bufferView": 5,
      "componentType": 5126,
      "count": 4392,
      "max": [
        185.92037963867188,
        136.499267578125
      ],
      "min": [
        -185.92034912109375,
        -136.500732421875
      ],
      "type": "VEC2"
    }
  ],
  "asset": {
    "generator": "CLO Standalone OnlineAuth 2025.0.84",
    "version": "2.0"
  },
  "bufferViews": [
    {
      "buffer": 0,
      "byteLength": 38976
    },
    {
      "buffer": 0,
      "byteLength": 38976,
      "byteOffset": 38976
    },
    {
      "buffer": 0,
      "byteLength": 19296,
      "byteOffset": 77952
    },
    {
      "buffer": 0,
      "byteLength": 52704,
      "byteOffset": 97248
    },
    {
      "buffer": 0,
      "byteLength": 52704,
      "byteOffset": 149952
    },
    {
      "buffer": 0,
      "byteLength": 35136,
      "byteOffset": 202656
    }
  ],
  "buffers": [
    {
      "byteLength": 237792,
      "uri": "data:application/octet-stream;base64,"
    }
  ],
  "extensionsUsed": [
    "KHR_materials_specular"
  ],
  "materials": [
    {
      "extensions": {
        "KHR_materials_specular": {
          "specularFactor": 0.15000000596046448
        }
      },
      "name": "FABRIC 1_3414174",
      "pbrMetallicRoughness": {
        "baseColorFactor": [
          0.6592240333557129,
          0.6592240333557129,
          0.6592240333557129,
          1.0
        ],
        "metallicFactor": 0.0,
        "roughnessFactor": 0.5
      }
    }
  ],
  "meshes": [
    {
      "name": "25",
      "primitives": [
        {
          "attributes": {
            "NORMAL": 4,
            "POSITION": 3,
            "TEXCOORD_0": 5
          },
          "indices": 0,
          "material": 0
        },
        {
          "attributes": {
            "NORMAL": 4,
            "POSITION": 3,
            "TEXCOORD_0": 5
          },
          "indices": 1,
          "material": 0
        },
        {
          "attributes": {
            "NORMAL": 4,
            "POSITION": 3,
            "TEXCOORD_0": 5
          },
          "indices": 2,
          "material": 0
        }
      ]
    }
  ],
  "nodes": [
    {
      "children": [
        1
      ],
      "name": "Top288-Sleeve-Hy_Scene_Node"
    },
    {
      "children": [
        2
      ],
      "name": "Cloth"
    },
    {
      "mesh": 0,
      "name": "25"
    }
  ],
  "scene": 0,
  "scenes": [
    {
      "nodes": [
        0
      ]
    }
  ]
}