{
  "accessors": [
    {
      "bufferView": 0,
      "componentType": 5125,
      "count": 72,
      "max": [
        25
      ],
      "min": [
        0
      ],
      "type": "SCALAR"
    },
    {
      "bufferView": 1,
      "componentType": 5125,
      "count": 72,
      "max": [
        51
      ],
      "min": [
        26
      ],
      "type": "SCALAR"
    },
    {
      "bufferView": 2,
      "componentType": 5125,
      "count": 156,
      "max": [
        111
      ],
      "min": [
        52
      ],
      "type": "SCALAR"
    },
    {
      "bufferView": 3,
      "componentType": 5126,
      "count": 112,
      "max": [
        0.10781639069318771,
        1.6506507396697998,
        0.10944823920726776
      ],
      "min": [
        -0.00695369066670537,
        1.5291309356689453,
        -0.09045705944299698
      ],
      "type": "VEC3"
    },
    {
      "bufferView": 4,
      "componentType": 5126,
      "count": 112,
      "max": [
        0.9018718600273132,
        0.9267075657844543,
        0.8548622131347656
      ],
      "min": [
        -0.9806090593338013,
        -0.9263303875923157,
        -0.8550806045532227
      ],
      "type": "VEC3"
    },
    {
      "bufferView": 5,
      "componentType": 5126,
      "count": 112,
      "max": [
        -8.6817626953125,
        0.5001220703125
      ],
      "min": [
        -237.2535400390625,
        -10.5008544921875
      ],
      "type": "VEC2"
    },
    {
      "bufferView": 6,
      "componentType": 5125,
      "count": 72,
      "max": [
        25
      ],
      "min": [
        0
      ],
      "type": "SCALAR"
    },
    {
      "bufferView": 7,
      "componentType": 5125,
      "count": 72,
      "max": [
        51
      ],
      "min": [
        26
      ],
      "type": "SCALAR"
    },
    {
      "bufferView": 8,
      "componentType": 5125,
      "count": 156,
      "max": [
        111
      ],
      "min": [
        52
      ],
      "type": "SCALAR"
    },
    {
      "bufferView": 9,
      "componentType": 5126,
      "count": 112,
      "max": [
        -0.004462289623916149,
        1.6447317600250244,
        0.10939358919858932
      ],
      "min": [
        -0.11921369284391403,
        1.5291059017181396,
        -0.08731238543987274
      ],
      "type": "VEC3"
    },
    {
      "bufferView": 10,
      "componentType": 5126,
      "count": 112,
      "max": [
        0.9683147668838501,
        0.9136584997177124,
        0.8396577835083008
      ],
      "min": [
        -0.9047719240188599,
        -0.9132108688354492,
        -0.8824001550674438
      ],
      "type": "VEC3"
    },
    {
      "bufferView": 11,
      "componentType": 5126,
      "count": 112,
      "max": [
        237.2535400390625,
        0.5001220703125
      ],
      "min": [
        8.6817626953125,
        -10.5008544921875
      ],
      "type": "VEC2"
    },
    {
      "bufferView": 12,
      "componentType": 5125,
      "count": 9750,
      "max": [
        1696
      ],
      "min": [
        0
      ],
      "type": "SCALAR"
    },
    {
      "bufferView": 13,
      "componentType": 5125,
      "count": 9750,
      "max": [
        3393
      ],
      "min": [
        1697
      ],
      "type": "SCALAR"
    },
    {
      "bufferView": 14,
      "componentType": 5125,
      "count": 2712,
      "max": [
        4027
      ],
      "min": [
        3394
      ],
      "type": "SCALAR"
    },
    {
      "bufferView": 15,
      "componentType": 5126,
      "count": 4028,
      "max": [
        0.35463064908981323,
        1.6326367855072021,
        0.04090512543916702
      ],
      "min": [
        -0.36788636445999146,
        1.0567350387573242,
        -0.21293529868125916
      ],
      "type": "VEC3"
    },
    {
      "bufferView": 16,
      "componentType": 5126,
      "count": 4028,
      "max": [
        0.9996274709701538,
        0.9927064180374146,
        0.9999772906303406
      ],
      "min": [
        -0.999716579914093,
        -0.9999927878379822,
        -0.9999772310256958
      ],
      "type": "VEC3"
    },
    {
      "bufferView": 17,
      "componentType": 5126,
      "count": 4028,
      "max": [
        368.9525146484375,
        208.78515625
      ],
      "min": [
        -368.9525146484375,
        -383.2125244140625
      ],
      "type": "VEC2"
    },
    {
      "bufferView": 18,
      "componentType": 5125,
      "count": 66,
      "max": [
        23
      ],
      "min": [
        0
      ],
      "type": "SCALAR"
    },
    {
      "bufferView": 19,
      "componentType": 5125,
      "count": 66,
      "max": [
        47
      ],
      "min": [
        24
      ],
      "type": "SCALAR"
    },
    {
      "bufferView": 20,
      "componentType": 5125,
      "count": 144,
      "max": [
        107
      ],
      "min": [
        48
      ],
      "type": "SCALAR"
    },
    {
      "bufferView": 21,
      "componentType": 5126,
      "count": 108,
      "max": [
        0.0965535119175911,
        1.6366361379623413,
        -0.08429404348134995
      ],
      "min": [
        -0.11111393570899963,
        1.6039276123046875,
        -0.11954561620950699
      ],
      "type": "VEC3"
    },
    {
      "bufferView": 22,
      "componentType": 5126,
      "count": 108,
      "max": [
        0.8051766157150269,
        0.8773947954177856,
        0.8823291659355164
      ],
      "min": [
        -0.8224849700927734,
        -0.8820274472236633,
        -0.88232421875
      ],
      "type": "VEC3"
    },
    {
      "bufferView": 23,
      "componentType": 5126,
      "count": 108,
      "max": [
        93.18902587890625,
        10.000247955322266
      ],
      "min": [
        -93.1890869140625,
        -10.000244140625
      ],
      "type": "VEC2"
    },
    {
      "bufferView": 24,
      "componentType": 5125,
      "count": 651,
      "max": [
        133
      ],
      "min": [
        0
      ],
      "type": "SCALAR"
    },
    {
      "bufferView": 25,
      "componentType": 5125,
      "count": 651,
      "max": [
        267
      ],
      "min": [
        134
      ],
      "type": "SCALAR"
    },
    {
      "bufferView": 26,
      "componentType": 5125,
      "count": 1614,
      "max": [
        608
      ],
      "min": [
        268
      ],
      "type": "SCALAR"
    },
    {
      "bufferView": 27,
      "componentType": 5126,
      "count": 609,
      "max": [
        -0.18100227415561676,
        1.5038831233978271,
        -0.023790085688233376
      ],
      "min": [
        -0.393927663564682,
        1.2380436658859253,
        -0.15229274332523346
      ],
      "type": "VEC3"
    },
    {
      "bufferView": 28,
      "componentType": 5126,
      "count": 609,
      "max": [
        0.999916136264801,
        0.9782835245132446,
        0.9917435646057129
      ],
      "min": [
        -0.9999168515205383,
        -0.9635239243507385,
        -0.9991450905799866
      ],
      "type": "VEC3"
    },
    {
      "bufferView": 29,
      "componentType": 5126,
      "count": 609,
      "max": [
        404.2069091796875,
        40.8458251953125
      ],
      "min": [
        243.3375244140625,
        -317.858642578125
      ],
      "type": "VEC2"
    },
    {
      "bufferView": 30,
      "componentType": 5125,
      "count": 582,
      "max": [
        121
      ],
      "min": [
        0
      ],
      "type": "SCALAR"
    },
    {
      "bufferView": 31,
      "componentType": 5125,
      "count": 582,
      "max": [
        243
      ],
      "min": [
        122
      ],
      "type": "SCALAR"
    },
    {
      "bufferView": 32,
      "componentType": 5125,
      "count": 1578,
      "max": [
        577
      ],
      "min": [
        244
      ],
      "type": "SCALAR"
    },
    {
      "bufferView": 33,
      "componentType": 5126,
      "count": 578,
      "max": [
        -0.18450209498405457,
        1.50661301612854,
        0.054202161729335785
      ],
      "min": [
        -0.3939482569694519,
        1.2497872114181519,
        -0.05337325483560562
      ],
      "type": "VEC3"
    },
    {
      "bufferView": 34,
      "componentType": 5126,
      "count": 578,
      "max": [
        0.9986429810523987,
        0.977107048034668,
        0.9995689392089844
      ],
      "min": [
        -0.9990179538726807,
        -0.9937754273414612,
        -0.9995609521865845
      ],
      "type": "VEC3"
    },
    {
      "bufferView": 35,
      "componentType": 5126,
      "count": 578,
      "max": [
        -241.33692932128906,
        -14.07568359375
      ],
      "min": [
        -401.6749267578125,
        -355.5732421875
      ],
      "type": "VEC2"
    },
    {
      "bufferView": 36,
      "componentType": 5125,
      "count": 564,
      "max": [
        118
      ],
      "min": [
        0
      ],
      "type": "SCALAR"
    },
    {
      "bufferView": 37,
      "componentType": 5125,
      "count": 564,
      "max": [
        237
      ],
      "min": [
        119
      ],
      "type": "SCALAR"
    },
    {
      "bufferView": 38,
      "componentType": 5125,
      "count": 1578,
      "max": [
        571
      ],
      "min": [
        238
      ],
      "type": "SCALAR"
    },
    {
      "bufferView": 39,
      "componentType": 5126,
      "count": 572,
      "max": [
        0.3799836039543152,
        1.5239853858947754,
        0.05831298232078552
      ],
      "min": [
        0.18130740523338318,
        1.2716071605682373,
        -0.06305523961782455
      ],
      "type": "VEC3"
    },
    {
      "bufferView": 40,
      "componentType": 5126,
      "count": 572,
      "max": [
        0.9993926286697388,
        0.984727144241333,
        0.9998873472213745
      ],
      "min": [
        -0.999366819858551,
        -0.9829860329627991,
        -0.9998900294303894
      ],
      "type": "VEC3"
    },
    {
      "bufferView": 41,
      "componentType": 5126,
      "count": 572,
      "max": [
        401.6749267578125,
        -14.07568359375
      ],
      "min": [
        241.3369598388672,
        -355.5731201171875
      ],
      "type": "VEC2"
    },
    {
      "bufferView": 42,
      "componentType": 5125,
      "count": 657,
      "max": [
        134
      ],
      "min": [
        0
      ],
      "type": "SCALAR"
    },
    {
      "bufferView": 43,
      "componentType": 5125,
      "count": 657,
      "max": [
        269
      ],
      "min": [
        135
      ],
      "type": "SCALAR"
    },
    {
      "bufferView": 44,
      "componentType": 5125,
      "count": 1614,
      "max": [
        610
      ],
      "min": [
        270
      ],
      "type": "SCALAR"
    },
    {
      "bufferView": 45,
      "componentType": 5126,
      "count": 611,
      "max": [
        0.37940698862075806,
        1.5125619173049927,
        -0.011998841539025307
      ],
      "min": [
        0.1672613024711609,
        1.253121018409729,
        -0.154502734541893
      ],
      "type": "VEC3"
    },
    {
      "bufferView": 46,
      "componentType": 5126,
      "count": 611,
      "max": [
        0.9990155100822449,
        0.9825055003166199,
        0.9881228804588318
      ],
      "min": [
        -0.9988971948623657,
        -0.9747173190116882,
        -0.9721755981445313
      ],
      "type": "VEC3"
    },
    {
      "bufferView": 47,
      "componentType": 5126,
      "count": 611,
      "max": [
        -243.33758544921875,
        40.8458251953125
      ],
      "min": [
        -404.206787109375,
        -317.858642578125
      ],
      "type": "VEC2"
    },
    {
      "bufferView": 48,
      "componentType": 5125,
      "count": 8652,
      "max": [
        1517
      ],
      "min": [
        0
      ],
      "type": "SCALAR"
    },
    {
      "bufferView": 49,
      "componentType": 5125,
      "count": 8652,
      "max": [
        3035
      ],
      "min": [
        1518
      ],
      "type": "SCALAR"
    },
    {
      "bufferView": 50,
      "componentType": 5125,
      "count": 2760,
      "max": [
        3685
      ],
      "min": [
        3036
      ],
      "type": "SCALAR"
    },
    {
      "bufferView": 51,
      "componentType": 5126,
      "count": 3686,
      "max": [
        0.3551488518714905,
        1.6478610038757324,
        0.18104307353496552
      ],
      "min": [
        -0.3678913414478302,
        1.087031364440918,
        -0.09019653499126434
      ],
      "type": "VEC3"
    },
    {
      "bufferView": 52,
      "componentType": 5126,
      "count": 3686,
      "max": [
        0.999975323677063,
        0.9379016160964966,
        0.9999589323997498
      ],
      "min": [
        -0.9999750256538391,
        -0.9966639280319214,
        -0.9999545812606812
      ],
      "type": "VEC3"
    },
    {
      "bufferView": 53,
      "componentType": 5126,
      "count": 3686,
      "max": [
        421.2079772949219,
        235.26065063476563
      ],
      "min": [
        -338.76983642578125,
        -414.3124694824219
      ],
      "type": "VEC2"
    }
  ],
  "asset": {
    "generator": "CLO Standalone OnlineAuth 2025.0.426",
    "version": "2.0"
  },
  "bufferViews": [
    {
      "buffer": 0,
      "byteLength": 288
    },
    {
      "buffer": 0,
      "byteLength": 288,
      "byteOffset": 288
    },
    {
      "buffer": 0,
      "byteLength": 624,
      "byteOffset": 576
    },
    {
      "buffer": 0,
      "byteLength": 1344,
      "byteOffset": 1200
    },
    {
      "buffer": 0,
      "byteLength": 1344,
      "byteOffset": 2544
    },
    {
      "buffer": 0,
      "byteLength": 896,
      "byteOffset": 3888
    },
    {
      "buffer": 0,
      "byteLength": 288,
      "byteOffset": 4784
    },
    {
      "buffer": 0,
      "byteLength": 288,
      "byteOffset": 5072
    },
    {
      "buffer": 0,
      "byteLength": 624,
      "byteOffset": 5360
    },
    {
      "buffer": 0,
      "byteLength": 1344,
      "byteOffset": 5984
    },
    {
      "buffer": 0,
      "byteLength": 1344,
      "byteOffset": 7328
    },
    {
      "buffer": 0,
      "byteLength": 896,
      "byteOffset": 8672
    },
    {
      "buffer": 0,
      "byteLength": 39000,
      "byteOffset": 9568
    },
    {
      "buffer": 0,
      "byteLength": 39000,
      "byteOffset": 48568
    },
    {
      "buffer": 0,
      "byteLength": 10848,
      "byteOffset": 87568
    },
    {
      "buffer": 0,
      "byteLength": 48336,
      "byteOffset": 98416
    },
    {
      "buffer": 0,
      "byteLength": 48336,
      "byteOffset": 146752
    },
    {
      "buffer": 0,
      "byteLength": 32224,
      "byteOffset": 195088
    },
    {
      "buffer": 0,
      "byteLength": 264,
      "byteOffset": 227312
    },
    {
      "buffer": 0,
      "byteLength": 264,
      "byteOffset": 227576
    },
    {
      "buffer": 0,
      "byteLength": 576,
      "byteOffset": 227840
    },
    {
      "buffer": 0,
      "byteLength": 1296,
      "byteOffset": 228416
    },
    {
      "buffer": 0,
      "byteLength": 1296,
      "byteOffset": 229712
    },
    {
      "buffer": 0,
      "byteLength": 864,
      "byteOffset": 231008
    },
    {
      "buffer": 0,
      "byteLength": 2604,
      "byteOffset": 231872
    },
    {
      "buffer": 0,
      "byteLength": 2604,
      "byteOffset": 234476
    },
    {
      "buffer": 0,
      "byteLength": 6456,
      "byteOffset": 237080
    },
    {
      "buffer": 0,
      "byteLength": 7308,
      "byteOffset": 243536
    },
    {
      "buffer": 0,
      "byteLength": 7308,
      "byteOffset": 250844
    },
    {
      "buffer": 0,
      "byteLength": 4872,
      "byteOffset": 258152
    },
    {
      "buffer": 0,
      "byteLength": 2328,
      "byteOffset": 263024
    },
    {
      "buffer": 0,
      "byteLength": 2328,
      "byteOffset": 265352
    },
    {
      "buffer": 0,
      "byteLength": 6312,
      "byteOffset": 267680
    },
    {
      "buffer": 0,
      "byteLength": 6936,
      "byteOffset": 273992
    },
    {
      "buffer": 0,
      "byteLength": 6936,
      "byteOffset": 280928
    },
    {
      "buffer": 0,
      "byteLength": 4624,
      "byteOffset": 287864
    },
    {
      "buffer": 0,
      "byteLength": 2256,
      "byteOffset": 292488
    },
    {
      "buffer": 0,
      "byteLength": 2256,
      "byteOffset": 294744
    },
    {
      "buffer": 0,
      "byteLength": 6312,
      "byteOffset": 297000
    },
    {
      "buffer": 0,
      "byteLength": 6864,
      "byteOffset": 303312
    },
    {
      "buffer": 0,
      "byteLength": 6864,
      "byteOffset": 310176
    },
    {
      "buffer": 0,
      "byteLength": 4576,
      "byteOffset": 317040
    },
    {
      "buffer": 0,
      "byteLength": 2628,
      "byteOffset": 321616
    },
    {
      "buffer": 0,
      "byteLength": 2628,
      "byteOffset": 324244
    },
    {
      "buffer": 0,
      "byteLength": 6456,
      "byteOffset": 326872
    },
    {
      "buffer": 0,
      "byteLength": 7332,
      "byteOffset": 333328
    },
    {
      "buffer": 0,
      "byteLength": 7332,
      "byteOffset": 340660
    },
    {
      "buffer": 0,
      "byteLength": 4888,
      "byteOffset": 347992
    },
    {
      "buffer": 0,
      "byteLength": 34608,
      "byteOffset": 352880
    },
    {
      "buffer": 0,
      "byteLength": 34608,
      "byteOffset": 387488
    },
    {
      "buffer": 0,
      "byteLength": 11040,
      "byteOffset": 422096
    },
    {
      "buffer": 0,
      "byteLength": 44232,
      "byteOffset": 433136
    },
    {
      "buffer": 0,
      "byteLength": 44232,
      "byteOffset": 477368
    },
    {
      "buffer": 0,
      "byteLength": 29488,
      "byteOffset": 521600
    }
  ],
  "buffers": [
    {
      "byteLength": 551088,
      "uri": "data:application/octet-stream;base64,"
    }
  ],
  "extensionsUsed": [
    "KHR_materials_specular"
  ],
  "materials": [
    {
      "extensions": {
        "KHR_materials_specular": {
          "specularFactor": 0.15000000596046448
        }
      },
      "name": "FABRIC 1_4388",
      "pbrMetallicRoughness": {
        "baseColorFactor": [
          0.6592240333557129,
          0.6592240333557129,
          0.6592240333557129,
          1.0
        ],
        "metallicFactor": 0.0,
        "roughnessFactor": 0.5
      }
    }
  ],
  "meshes": [
    {
      "name": "Pattern2D_768516",
      "primitives": [
        {
          "attributes": {
            "NORMAL": 4,
            "POSITION": 3,
            "TEXCOORD_0": 5
          },
          "indices": 0,
          "material": 0
        },
        {
          "attributes": {
            "NORMAL": 4,
            "POSITION": 3,
            "TEXCOORD_0": 5
          },
          "indices": 1,
          "material": 0
        },
        {
          "attributes": {
            "NORMAL": 4,
            "POSITION": 3,
            "TEXCOORD_0": 5
          },
          "indices": 2,
          "material": 0
        }
      ]
    },
    {
      "name": "Pattern2D_3805017",
      "primitives": [
        {
          "attributes": {
            "NORMAL": 10,
            "POSITION": 9,
            "TEXCOORD_0": 11
          },
          "indices": 6,
          "material": 0
        },
        {
          "attributes": {
            "NORMAL": 10,
            "POSITION": 9,
            "TEXCOORD_0": 11
          },
          "indices": 7,
          "material": 0
        },
        {
          "attributes": {
            "NORMAL": 10,
            "POSITION": 9,
            "TEXCOORD_0": 11
          },
          "indices": 8,
          "material": 0
        }
      ]
    },
    {
      "name": "8",
      "primitives": [
        {
          "attributes": {
            "NORMAL": 16,
            "POSITION": 15,
            "TEXCOORD_0": 17
          },
          "indices": 12,
          "material": 0
        },
        {
          "attributes": {
            "NORMAL": 16,
            "POSITION": 15,
            "TEXCOORD_0": 17
          },
          "indices": 13,
          "material": 0
        },
        {
          "attributes": {
            "NORMAL": 16,
            "POSITION": 15,
            "TEXCOORD_0": 17
          },
          "indices": 14,
          "material": 0
        }
      ]
    },
    {
      "name": "Pattern2D_3805002",
      "primitives": [
        {
          "attributes": {
            "NORMAL": 22,
            "POSITION": 21,
            "TEXCOORD_0": 23
          },
          "indices": 18,
          "material": 0
        },
        {
          "attributes": {
            "NORMAL": 22,
            "POSITION": 21,
            "TEXCOORD_0": 23
          },
          "indices": 19,
          "material": 0
        },
        {
          "attributes": {
            "NORMAL": 22,
            "POSITION": 21,
            "TEXCOORD_0": 23
          },
          "indices": 20,
          "material": 0
        }
      ]
    },
    {
      "name": "21",
      "primitives": [
        {
          "attributes": {
            "NORMAL": 28,
            "POSITION": 27,
            "TEXCOORD_0": 29
          },
          "indices": 24,
          "material": 0
        },
        {
          "attributes": {
            "NORMAL": 28,
            "POSITION": 27,
            "TEXCOORD_0": 29
          },
          "indices": 25,
          "material": 0
        },
        {
          "attributes": {
            "NORMAL": 28,
            "POSITION": 27,
            "TEXCOORD_0": 29
          },
          "indices": 26,
          "material": 0
        }
      ]
    },
    {
      "name": "43",
      "primitives": [
        {
          "attributes": {
            "NORMAL": 34,
            "POSITION": 33,
            "TEXCOORD_0": 35
          },
          "indices": 30,
          "material": 0
        },
        {
          "attributes": {
            "NORMAL": 34,
            "POSITION": 33,
            "TEXCOORD_0": 35
          },
          "indices": 31,
          "material": 0
        },
        {
          "attributes": {
            "NORMAL": 34,
            "POSITION": 33,
            "TEXCOORD_0": 35
          },
          "indices": 32,
          "material": 0
        }
      ]
    },
    {
      "name": "44",
      "primitives": [
        {
          "attributes": {
            "NORMAL": 40,
            "POSITION": 39,
            "TEXCOORD_0": 41
          },
          "indices": 36,
          "material": 0
        },
        {
          "attributes": {
            "NORMAL": 40,
            "POSITION": 39,
            "TEXCOORD_0": 41
          },
          "indices": 37,
          "material": 0
        },
        {
          "attributes": {
            "NORMAL": 40,
            "POSITION": 39,
            "TEXCOORD_0": 41
          },
          "indices": 38,
          "material": 0
        }
      ]
    },
    {
      "name": "22",
      "primitives": [
        {
          "attributes": {
            "NORMAL": 46,
            "POSITION": 45,
            "TEXCOORD_0": 47
          },
          "indices": 42,
          "material": 0
        },
        {
          "attributes": {
            "NORMAL": 46,
            "POSITION": 45,
            "TEXCOORD_0": 47
          },
          "indices": 43,
          "material": 0
        },
        {
          "attributes": {
            "NORMAL": 46,
            "POSITION": 45,
            "TEXCOORD_0": 47
          },
          "indices": 44,
          "material": 0
        }
      ]
    },
    {
      "name": "42",
      "primitives": [
        {
          "attributes": {
            "NORMAL": 52,
            "POSITION": 51,
            "TEXCOORD_0": 53
          },
          "indices": 48,
          "material": 0
        },
        {
          "attributes": {
            "NORMAL": 52,
            "POSITION": 51,
            "TEXCOORD_0": 53
          },
          "indices": 49,
          "material": 0
        },
        {
          "attributes": {
            "NORMAL": 52,
            "POSITION": 51,
            "TEXCOORD_0": 53
          },
          "indices": 50,
          "material": 0
        }
      ]
    }
  ],
  "nodes": [
    {
      "children": [
        1
      ],
      "name": "Bodice 1385_Scene_Node"
    },
    {
      "children": [
        2,
        3,
        4,
        5,
        6,
        7,
        8,
        9,
        10
      ],
      "name": "Cloth"
    },
    {
      "mesh": 0,
      "name": "Pattern2D_768516"
    },
    {
      "mesh": 1,
      "name": "Pattern2D_3805017"
    },
    {
      "mesh": 2,
      "name": "8"
    },
    {
      "mesh": 3,
      "name": "Pattern2D_3805002"
    },
    {
      "mesh": 4,
      "name": "21"
    },
    {
      "mesh": 5,
      "name": "43"
    },
    {
      "mesh": 6,
      "name": "44"
    },
    {
      "mesh": 7,
      "name": "22"
    },
    {
      "mesh": 8,
      "name": "42"
    }
  ],
  "scene": 0,
  "scenes": [
    {
      "nodes": [
        0
      ]
    }
  ]
}