{
  "accessors": [
    {
      "bufferView": 0,
      "componentType": 5125,
      "count": 168,
      "max": [
        38
      ],
      "min": [
        0
      ],
      "type": "SCALAR"
    },
    {
      "bufferView": 1,
      "componentType": 5125,
      "count": 168,
      "max": [
        77
      ],
      "min": [
        39
      ],
      "type": "SCALAR"
    },
    {
      "bufferView": 2,
      "componentType": 5125,
      "count": 720,
      "max": [
        245
      ],
      "min": [
        78
      ],
      "type": "SCALAR"
    },
    {
      "bufferView": 3,
      "componentType": 5126,
      "count": 246,
      "max": [
        0.02699175290763378,
        1.5991942882537842,
        0.09785532206296921
      ],
      "min": [
        -0.01971171423792839,
        1.449968695640564,
        0.03391828387975693
      ],
      "type": "VEC3"
    },
    {
      "bufferView": 4,
      "componentType": 5126,
      "count": 246,
      "max": [
        0.9971016645431519,
        0.9972488284111023,
        0.9973592162132263
      ],
      "min": [
        -0.9987103939056396,
        -0.9947121739387512,
        -0.9518462419509888
      ],
      "type": "VEC3"
    },
    {
      "bufferView": 5,
      "componentType": 5126,
      "count": 246,
      "max": [
        -116.0771713256836,
        319.2148132324219
      ],
      "min": [
        -153.1211395263672,
        158.11814880371094
      ],
      "type": "VEC2"
    },
    {
      "bufferView": 6,
      "componentType": 5125,
      "count": 531,
      "max": [
        124
      ],
      "min": [
        0
      ],
      "type": "SCALAR"
    },
    {
      "bufferView": 7,
      "componentType": 5125,
      "count": 531,
      "max": [
        249
      ],
      "min": [
        125
      ],
      "type": "SCALAR"
    },
    {
      "bufferView": 8,
      "componentType": 5125,
      "count": 2556,
      "max": [
        788
      ],
      "min": [
        250
      ],
      "type": "SCALAR"
    },
    {
      "bufferView": 9,
      "componentType": 5126,
      "count": 789,
      "max": [
        0.07917541265487671,
        1.6893829107284546,
        0.07165578007698059
      ],
      "min": [
        -0.07936662435531616,
        1.5936460494995117,
        -0.08237002789974213
      ],
      "type": "VEC3"
    },
    {
      "bufferView": 10,
      "componentType": 5126,
      "count": 789,
      "max": [
        0.997819185256958,
        0.9999066591262817,
        0.9964019656181335
      ],
      "min": [
        -0.9972109198570251,
        -0.9998645782470703,
        -0.9964598417282104
      ],
      "type": "VEC3"
    },
    {
      "bufferView": 11,
      "componentType": 5126,
      "count": 789,
      "max": [
        226.283203125,
        27.615234375
      ],
      "min": [
        -226.28369140625,
        -20.8642578125
      ],
      "type": "VEC2"
    },
    {
      "bufferView": 12,
      "componentType": 5125,
      "count": 3618,
      "max": [
        665
      ],
      "min": [
        0
      ],
      "type": "SCALAR"
    },
    {
      "bufferView": 13,
      "componentType": 5125,
      "count": 3618,
      "max": [
        1331
      ],
      "min": [
        666
      ],
      "type": "SCALAR"
    },
    {
      "bufferView": 14,
      "componentType": 5125,
      "count": 4464,
      "max": [
        2241
      ],
      "min": [
        1332
      ],
      "type": "SCALAR"
    },
    {
      "bufferView": 15,
      "componentType": 5126,
      "count": 2242,
      "max": [
        0.10363085567951202,
        1.6940256357192993,
        0.08084776997566223
      ],
      "min": [
        -0.10513905435800552,
        1.5084271430969238,
        -0.08703120052814484
      ],
      "type": "VEC3"
    },
    {
      "bufferView": 16,
      "componentType": 5126,
      "count": 2242,
      "max": [
        0.9858686327934265,
        0.9992164969444275,
        0.992607831954956
      ],
      "min": [
        -0.9924335479736328,
        -0.9998695850372314,
        -0.9991493821144104
      ],
      "type": "VEC3"
    },
    {
      "bufferView": 17,
      "componentType": 5126,
      "count": 2242,
      "max": [
        286.7783203125,
        44.91796875
      ],
      "min": [
        -286.7783203125,
        -53.228515625
      ],
      "type": "VEC2"
    },
    {
      "bufferView": 18,
      "componentType": 5125,
      "count": 111,
      "max": [
        30
      ],
      "min": [
        0
      ],
      "type": "SCALAR"
    },
    {
      "bufferView": 19,
      "componentType": 5125,
      "count": 111,
      "max": [
        61
      ],
      "min": [
        31
      ],
      "type": "SCALAR"
    },
    {
      "bufferView": 20,
      "componentType": 5125,
      "count": 792,
      "max": [
        243
      ],
      "min": [
        62
      ],
      "type": "SCALAR"
    },
    {
      "bufferView": 21,
      "componentType": 5126,
      "count": 244,
      "max": [
        0.012560003437101841,
        1.5987420082092285,
        0.09784131497144699
      ],
      "min": [
        -0.0289896409958601,
        1.4500209093093872,
        0.048093896359205246
      ],
      "type": "VEC3"
    },
    {
      "bufferView": 22,
      "componentType": 5126,
      "count": 244,
      "max": [
        0.9998781681060791,
        0.9904468059539795,
        0.9979866743087769
      ],
      "min": [
        -0.9996036291122437,
        -0.9910091757774353,
        -0.9929315447807312
      ],
      "type": "VEC3"
    },
    {
      "bufferView": 23,
      "componentType": 5126,
      "count": 244,
      "max": [
        -121.0771713256836,
        317.5536804199219
      ],
      "min": [
        -153.1206512451172,
        158.61717224121094
      ],
      "type": "VEC2"
    },
    {
      "bufferView": 24,
      "componentType": 5125,
      "count": 10518,
      "max": [
        1821
      ],
      "min": [
        0
      ],
      "type": "SCALAR"
    },
    {
      "bufferView": 25,
      "componentType": 5125,
      "count": 10518,
      "max": [
        3643
      ],
      "min": [
        1822
      ],
      "type": "SCALAR"
    },
    {
      "bufferView": 26,
      "componentType": 5125,
      "count": 2808,
      "max": [
        4245
      ],
      "min": [
        3644
      ],
      "type": "SCALAR"
    },
    {
      "bufferView": 27,
      "componentType": 5126,
      "count": 4246,
      "max": [
        0.23123452067375183,
        1.653834581375122,
        -0.015213191509246826
      ],
      "min": [
        -0.23129118978977203,
        0.9709805250167847,
        -0.15071788430213928
      ],
      "type": "VEC3"
    },
    {
      "bufferView": 28,
      "componentType": 5126,
      "count": 4246,
      "max": [
        0.9995056390762329,
        0.9997415542602539,
        0.9999887943267822
      ],
      "min": [
        -0.9998124837875366,
        -0.9996733069419861,
        -0.999988853931427
      ],
      "type": "VEC3"
    },
    {
      "bufferView": 29,
      "componentType": 5126,
      "count": 4246,
      "max": [
        302.06927490234375,
        330.9512939453125
      ],
      "min": [
        -302.06744384765625,
        -378.9483642578125
      ],
      "type": "VEC2"
    },
    {
      "bufferView": 30,
      "componentType": 5125,
      "count": 10008,
      "max": [
        1742
      ],
      "min": [
        0
      ],
      "type": "SCALAR"
    },
    {
      "bufferView": 31,
      "componentType": 5125,
      "count": 10008,
      "max": [
        3485
      ],
      "min": [
        1743
      ],
      "type": "SCALAR"
    },
    {
      "bufferView": 32,
      "componentType": 5125,
      "count": 2880,
      "max": [
        4087
      ],
      "min": [
        3486
      ],
      "type": "SCALAR"
    },
    {
      "bufferView": 33,
      "componentType": 5126,
      "count": 4088,
      "max": [
        0.23104487359523773,
        1.636030673980713,
        0.13931886851787567
      ],
      "min": [
        -0.2310444712638855,
        0.9709877967834473,
        -0.05321701616048813
      ],
      "type": "VEC3"
    },
    {
      "bufferView": 34,
      "componentType": 5126,
      "count": 4088,
      "max": [
        0.9999851584434509,
        0.9489456415176392,
        0.9999862313270569
      ],
      "min": [
        -0.9999853372573853,
        -0.9999688267707825,
        -0.9999861717224121
      ],
      "type": "VEC3"
    },
    {
      "bufferView": 35,
      "componentType": 5126,
      "count": 4088,
      "max": [
        171.78074645996094,
        373.1416015625
      ],
      "min": [
        -445.953125,
        -305.96588134765625
      ],
      "type": "VEC2"
    },
    {
      "bufferView": 36,
      "componentType": 5125,
      "count": 300,
      "max": [
        54
      ],
      "min": [
        0
      ],
      "type": "SCALAR"
    },
    {
      "bufferView": 37,
      "componentType": 5126,
      "count": 55,
      "max": [
        0.010109484195709229,
        0.0048028044402599335,
        0.010124444961547852
      ],
      "min": [
        -0.009753704071044922,
        0.00019968673586845398,
        -0.010123729705810547
      ],
      "type": "VEC3"
    },
    {
      "bufferView": 38,
      "componentType": 5126,
      "count": 55,
      "max": [
        0.9862462878227234,
        0.9971129894256592,
        0.9837683439254761
      ],
      "min": [
        -0.9541932344436646,
        -0.9989219307899475,
        -0.9802843332290649
      ],
      "type": "VEC3"
    },
    {
      "bufferView": 39,
      "componentType": 5126,
      "count": 55,
      "max": [
        0.9155746102333069,
        -0.12933918833732605
      ],
      "min": [
        0.10483931750059128,
        -0.9324427843093872
      ],
      "type": "VEC2"
    },
    {
      "bufferView": 40,
      "componentType": 5125,
      "count": 300,
      "max": [
        54
      ],
      "min": [
        0
      ],
      "type": "SCALAR"
    },
    {
      "bufferView": 41,
      "componentType": 5126,
      "count": 55,
      "max": [
        0.010109484195709229,
        0.0048029422760009766,
        0.010123491287231445
      ],
      "min": [
        -0.009753614664077759,
        0.0001996755599975586,
        -0.010123968124389648
      ],
      "type": "VEC3"
    },
    {
      "bufferView": 42,
      "componentType": 5126,
      "count": 55,
      "max": [
        0.9862462878227234,
        0.9971129894256592,
        0.9837683439254761
      ],
      "min": [
        -0.9541932344436646,
        -0.9989219307899475,
        -0.9802843332290649
      ],
      "type": "VEC3"
    },
    {
      "bufferView": 43,
      "componentType": 5126,
      "count": 55,
      "max": [
        0.9155746102333069,
        -0.12933918833732605
      ],
      "min": [
        0.10483931750059128,
        -0.9324427843093872
      ],
      "type": "VEC2"
    },
    {
      "bufferView": 44,
      "componentType": 5125,
      "count": 300,
      "max": [
        54
      ],
      "min": [
        0
      ],
      "type": "SCALAR"
    },
    {
      "bufferView": 45,
      "componentType": 5126,
      "count": 55,
      "max": [
        0.010109484195709229,
        0.004802823066711426,
        0.010123729705810547
      ],
      "min": [
        -0.009753629565238953,
        0.0001996755599975586,
        -0.01012420654296875
      ],
      "type": "VEC3"
    },
    {
      "bufferView": 46,
      "componentType": 5126,
      "count": 55,
      "max": [
        0.9862462878227234,
        0.9971129894256592,
        0.9837683439254761
      ],
      "min": [
        -0.9541932344436646,
        -0.9989219307899475,
        -0.9802843332290649
      ],
      "type": "VEC3"
    },
    {
      "bufferView": 47,
      "componentType": 5126,
      "count": 55,
      "max": [
        0.9155746102333069,
        -0.12933918833732605
      ],
      "min": [
        0.10483931750059128,
        -0.9324427843093872
      ],
      "type": "VEC2"
    },
    {
      "bufferView": 48,
      "componentType": 5125,
      "count": 300,
      "max": [
        54
      ],
      "min": [
        0
      ],
      "type": "SCALAR"
    },
    {
      "bufferView": 49,
      "componentType": 5126,
      "count": 55,
      "max": [
        0.010109543800354004,
        0.00480276346206665,
        0.010123968124389648
      ],
      "min": [
        -0.009753584861755371,
        0.0001996159553527832,
        -0.010123968124389648
      ],
      "type": "VEC3"
    },
    {
      "bufferView": 50,
      "componentType": 5126,
      "count": 55,
      "max": [
        0.9862462878227234,
        0.9971129894256592,
        0.9837683439254761
      ],
      "min": [
        -0.9541932344436646,
        -0.9989219307899475,
        -0.9802843332290649
      ],
      "type": "VEC3"
    },
    {
      "bufferView": 51,
      "componentType": 5126,
      "count": 55,
      "max": [
        0.9155746102333069,
        -0.12933918833732605
      ],
      "min": [
        0.10483931750059128,
        -0.9324427843093872
      ],
      "type": "VEC2"
    },
    {
      "bufferView": 52,
      "componentType": 5125,
      "count": 300,
      "max": [
        54
      ],
      "min": [
        0
      ],
      "type": "SCALAR"
    },
    {
      "bufferView": 53,
      "componentType": 5126,
      "count": 55,
      "max": [
        0.010109484195709229,
        0.004803061485290527,
        0.01012420654296875
      ],
      "min": [
        -0.009753614664077759,
        0.0001996755599975586,
        -0.010123491287231445
      ],
      "type": "VEC3"
    },
    {
      "bufferView": 54,
      "componentType": 5126,
      "count": 55,
      "max": [
        0.9862462878227234,
        0.9971129894256592,
        0.9837683439254761
      ],
      "min": [
        -0.9541932344436646,
        -0.9989219307899475,
        -0.9802843332290649
      ],
      "type": "VEC3"
    },
    {
      "bufferView": 55,
      "componentType": 5126,
      "count": 55,
      "max": [
        0.9155746102333069,
        -0.12933918833732605
      ],
      "min": [
        0.10483931750059128,
        -0.9324427843093872
      ],
      "type": "VEC2"
    },
    {
      "bufferView": 56,
      "componentType": 5125,
      "count": 300,
      "max": [
        54
      ],
      "min": [
        0
      ],
      "type": "SCALAR"
    },
    {
      "bufferView": 57,
      "componentType": 5126,
      "count": 55,
      "max": [
        0.010109461843967438,
        0.0048029422760009766,
        0.01012420654296875
      ],
      "min": [
        -0.009753629565238953,
        0.00019979476928710938,
        -0.010123968124389648
      ],
      "type": "VEC3"
    },
    {
      "bufferView": 58,
      "componentType": 5126,
      "count": 55,
      "max": [
        0.9862462878227234,
        0.9971129894256592,
        0.9837683439254761
      ],
      "min": [
        -0.9541932344436646,
        -0.9989219307899475,
        -0.9802843332290649
      ],
      "type": "VEC3"
    },
    {
      "bufferView": 59,
      "componentType": 5126,
      "count": 55,
      "max": [
        0.9155746102333069,
        -0.12933918833732605
      ],
      "min": [
        0.10483931750059128,
        -0.9324427843093872
      ],
      "type": "VEC2"
    }
  ],
  "asset": {
    "generator": "CLO Standalone OnlineAuth 2025.0.426",
    "version": "2.0"
  },
  "bufferViews": [
    {
      "buffer": 0,
      "byteLength": 672
    },
    {
      "buffer": 0,
      "byteLength": 672,
      "byteOffset": 672
    },
    {
      "buffer": 0,
      "byteLength": 2880,
      "byteOffset": 1344
    },
    {
      "buffer": 0,
      "byteLength": 2952,
      "byteOffset": 4224
    },
    {
      "buffer": 0,
      "byteLength": 2952,
      "byteOffset": 7176
    },
    {
      "buffer": 0,
      "byteLength": 1968,
      "byteOffset": 10128
    },
    {
      "buffer": 0,
      "byteLength": 2124,
      "byteOffset": 12096
    },
    {
      "buffer": 0,
      "byteLength": 2124,
      "byteOffset": 14220
    },
    {
      "buffer": 0,
      "byteLength": 10224,
      "byteOffset": 16344
    },
    {
      "buffer": 0,
      "byteLength": 9468,
      "byteOffset": 26568
    },
    {
      "buffer": 0,
      "byteLength": 9468,
      "byteOffset": 36036
    },
    {
      "buffer": 0,
      "byteLength": 6312,
      "byteOffset": 45504
    },
    {
      "buffer": 0,
      "byteLength": 14472,
      "byteOffset": 51816
    },
    {
      "buffer": 0,
      "byteLength": 14472,
      "byteOffset": 66288
    },
    {
      "buffer": 0,
      "byteLength": 17856,
      "byteOffset": 80760
    },
    {
      "buffer": 0,
      "byteLength": 26904,
      "byteOffset": 98616
    },
    {
      "buffer": 0,
      "byteLength": 26904,
      "byteOffset": 125520
    },
    {
      "buffer": 0,
      "byteLength": 17936,
      "byteOffset": 152424
    },
    {
      "buffer": 0,
      "byteLength": 444,
      "byteOffset": 170360
    },
    {
      "buffer": 0,
      "byteLength": 444,
      "byteOffset": 170804
    },
    {
      "buffer": 0,
      "byteLength": 3168,
      "byteOffset": 171248
    },
    {
      "buffer": 0,
      "byteLength": 2928,
      "byteOffset": 174416
    },
    {
      "buffer": 0,
      "byteLength": 2928,
      "byteOffset": 177344
    },
    {
      "buffer": 0,
      "byteLength": 1952,
      "byteOffset": 180272
    },
    {
      "buffer": 0,
      "byteLength": 42072,
      "byteOffset": 182224
    },
    {
      "buffer": 0,
      "byteLength": 42072,
      "byteOffset": 224296
    },
    {
      "buffer": 0,
      "byteLength": 11232,
      "byteOffset": 266368
    },
    {
      "buffer": 0,
      "byteLength": 50952,
      "byteOffset": 277600
    },
    {
      "buffer": 0,
      "byteLength": 50952,
      "byteOffset": 328552
    },
    {
      "buffer": 0,
      "byteLength": 33968,
      "byteOffset": 379504
    },
    {
      "buffer": 0,
      "byteLength": 40032,
      "byteOffset": 413472
    },
    {
      "buffer": 0,
      "byteLength": 40032,
      "byteOffset": 453504
    },
    {
      "buffer": 0,
      "byteLength": 11520,
      "byteOffset": 493536
    },
    {
      "buffer": 0,
      "byteLength": 49056,
      "byteOffset": 505056
    },
    {
      "buffer": 0,
      "byteLength": 49056,
      "byteOffset": 554112
    },
    {
      "buffer": 0,
      "byteLength": 32704,
      "byteOffset": 603168
    },
    {
      "buffer": 0,
      "byteLength": 1200,
      "byteOffset": 635872
    },
    {
      "buffer": 0,
      "byteLength": 660,
      "byteOffset": 637072
    },
    {
      "buffer": 0,
      "byteLength": 660,
      "byteOffset": 637732
    },
    {
      "buffer": 0,
      "byteLength": 440,
      "byteOffset": 638392
    },
    {
      "buffer": 0,
      "byteLength": 1200,
      "byteOffset": 638832
    },
    {
      "buffer": 0,
      "byteLength": 660,
      "byteOffset": 640032
    },
    {
      "buffer": 0,
      "byteLength": 660,
      "byteOffset": 640692
    },
    {
      "buffer": 0,
      "byteLength": 440,
      "byteOffset": 641352
    },
    {
      "buffer": 0,
      "byteLength": 1200,
      "byteOffset": 641792
    },
    {
      "buffer": 0,
      "byteLength": 660,
      "byteOffset": 642992
    },
    {
      "buffer": 0,
      "byteLength": 660,
      "byteOffset": 643652
    },
    {
      "buffer": 0,
      "byteLength": 440,
      "byteOffset": 644312
    },
    {
      "buffer": 0,
      "byteLength": 1200,
      "byteOffset": 644752
    },
    {
      "buffer": 0,
      "byteLength": 660,
      "byteOffset": 645952
    },
    {
      "buffer": 0,
      "byteLength": 660,
      "byteOffset": 646612
    },
    {
      "buffer": 0,
      "byteLength": 440,
      "byteOffset": 647272
    },
    {
      "buffer": 0,
      "byteLength": 1200,
      "byteOffset": 647712
    },
    {
      "buffer": 0,
      "byteLength": 660,
      "byteOffset": 648912
    },
    {
      "buffer": 0,
      "byteLength": 660,
      "byteOffset": 649572
    },
    {
      "buffer": 0,
      "byteLength": 440,
      "byteOffset": 650232
    },
    {
      "buffer": 0,
      "byteLength": 1200,
      "byteOffset": 650672
    },
    {
      "buffer": 0,
      "byteLength": 660,
      "byteOffset": 651872
    },
    {
      "buffer": 0,
      "byteLength": 660,
      "byteOffset": 652532
    },
    {
      "buffer": 0,
      "byteLength": 440,
      "byteOffset": 653192
    }
  ],
  "buffers": [
    {
      "byteLength": 653632,
      "uri": "data:application/octet-stream;base64,"
    }
  ],
  "extensionsUsed": [
    "KHR_materials_specular"
  ],
  "materials": [
    {
      "extensions": {
        "KHR_materials_specular": {
          "specularFactor": 0.15000000596046448
        }
      },
      "name": "FABRIC 1_2326294",
      "pbrMetallicRoughness": {
        "baseColorFactor": [
          0.6592240333557129,
          0.6592240333557129,
          0.6592240333557129,
          1.0
        ],
        "metallicFactor": 0.0,
        "roughnessFactor": 0.5
      }
    },
    {
      "name": "Default Button_2326555",
      "pbrMetallicRoughness": {
        "roughnessFactor": 0.10000002384185791
      }
    }
  ],
  "meshes": [
    {
      "name": "19",
      "primitives": [
        {
          "attributes": {
            "NORMAL": 4,
            "POSITION": 3,
            "TEXCOORD_0": 5
          },
          "indices": 0,
          "material": 0
        },
        {
          "attributes": {
            "NORMAL": 4,
            "POSITION": 3,
            "TEXCOORD_0": 5
          },
          "indices": 1,
          "material": 0
        },
        {
          "attributes": {
            "NORMAL": 4,
            "POSITION": 3,
            "TEXCOORD_0": 5
          },
          "indices": 2,
          "material": 0
        }
      ]
    },
    {
      "name": "18",
      "primitives": [
        {
          "attributes": {
            "NORMAL": 10,
            "POSITION": 9,
            "TEXCOORD_0": 11
          },
          "indices": 6,
          "material": 0
        },
        {
          "attributes": {
            "NORMAL": 10,
            "POSITION": 9,
            "TEXCOORD_0": 11
          },
          "indices": 7,
          "material": 0
        },
        {
          "attributes": {
            "NORMAL": 10,
            "POSITION": 9,
            "TEXCOORD_0": 11
          },
          "indices": 8,
          "material": 0
        }
      ]
    },
    {
      "name": "9",
      "primitives": [
        {
          "attributes": {
            "NORMAL": 16,
            "POSITION": 15,
            "TEXCOORD_0": 17
          },
          "indices": 12,
          "material": 0
        },
        {
          "attributes": {
            "NORMAL": 16,
            "POSITION": 15,
            "TEXCOORD_0": 17
          },
          "indices": 13,
          "material": 0
        },
        {
          "attributes": {
            "NORMAL": 16,
            "POSITION": 15,
            "TEXCOORD_0": 17
          },
          "indices": 14,
          "material": 0
        }
      ]
    },
    {
      "name": "15",
      "primitives": [
        {
          "attributes": {
            "NORMAL": 22,
            "POSITION": 21,
            "TEXCOORD_0": 23
          },
          "indices": 18,
          "material": 0
        },
        {
          "attributes": {
            "NORMAL": 22,
            "POSITION": 21,
            "TEXCOORD_0": 23
          },
          "indices": 19,
          "material": 0
        },
        {
          "attributes": {
            "NORMAL": 22,
            "POSITION": 21,
            "TEXCOORD_0": 23
          },
          "indices": 20,
          "material": 0
        }
      ]
    },
    {
      "name": "94",
      "primitives": [
        {
          "attributes": {
            "NORMAL": 28,
            "POSITION": 27,
            "TEXCOORD_0": 29
          },
          "indices": 24,
          "material": 0
        },
        {
          "attributes": {
            "NORMAL": 28,
            "POSITION": 27,
            "TEXCOORD_0": 29
          },
          "indices": 25,
          "material": 0
        },
        {
          "attributes": {
            "NORMAL": 28,
            "POSITION": 27,
            "TEXCOORD_0": 29
          },
          "indices": 26,
          "material": 0
        }
      ]
    },
    {
      "name": "95",
      "primitives": [
        {
          "attributes": {
            "NORMAL": 34,
            "POSITION": 33,
            "TEXCOORD_0": 35
          },
          "indices": 30,
          "material": 0
        },
        {
          "attributes": {
            "NORMAL": 34,
            "POSITION": 33,
            "TEXCOORD_0": 35
          },
          "indices": 31,
          "material": 0
        },
        {
          "attributes": {
            "NORMAL": 34,
            "POSITION": 33,
            "TEXCOORD_0": 35
          },
          "indices": 32,
          "material": 0
        }
      ]
    },
    {
      "name": "Button_20069936",
      "primitives": [
        {
          "attributes": {
            "NORMAL": 38,
            "POSITION": 37,
            "TEXCOORD_0": 39
          },
          "indices": 36,
          "material": 1
        }
      ]
    },
    {
      "name": "Button_20119176",
      "primitives": [
        {
          "attributes": {
            "NORMAL": 42,
            "POSITION": 41,
            "TEXCOORD_0": 43
          },
          "indices": 40,
          "material": 1
        }
      ]
    },
    {
      "name": "Button_20119663",
      "primitives": [
        {
          "attributes": {
            "NORMAL": 46,
            "POSITION": 45,
            "TEXCOORD_0": 47
          },
          "indices": 44,
          "material": 1
        }
      ]
    },
    {
      "name": "Button_8092902",
      "primitives": [
        {
          "attributes": {
            "NORMAL": 50,
            "POSITION": 49,
            "TEXCOORD_0": 51
          },
          "indices": 48,
          "material": 1
        }
      ]
    },
    {
      "name": "Button_8092924",
      "primitives": [
        {
          "attributes": {
            "NORMAL": 54,
            "POSITION": 53,
            "TEXCOORD_0": 55
          },
          "indices": 52,
          "material": 1
        }
      ]
    },
    {
      "name": "Button_8092946",
      "primitives": [
        {
          "attributes": {
            "NORMAL": 58,
            "POSITION": 57,
            "TEXCOORD_0": 59
          },
          "indices": 56,
          "material": 1
        }
      ]
    }
  ],
  "nodes": [
    {
      "children": [
        1
      ],
      "name": "Bodice 1384_Scene_Node"
    },
    {
      "children": [
        2,
        3,
        4,
        5,
        6,
        7,
        8,
        10,
        12,
        14,
        16,
        18
      ],
      "name": "Cloth"
    },
    {
      "mesh": 0,
      "name": "19"
    },
    {
      "mesh": 1,
      "name": "18"
    },
    {
      "mesh": 2,
      "name": "9"
    },
    {
      "mesh": 3,
      "name": "15"
    },
    {
      "mesh": 4,
      "name": "94"
    },
    {
      "mesh": 5,
      "name": "95"
    },
    {
      "children": [
        9
      ],
      "name": "ButtonHead",
      "rotation": [
        0.6625746488571167,
        -0.06822945177555084,
        0.2713583707809448,
        0.6947692036628723
      ],
      "scale": [
        0.6500000357627869,
        0.44745734333992004,
        0.6499999761581421
      ],
      "translation": [
        -0.014565237797796726,
        1.5774388313293457,
        0.06385952234268188
      ]
    },
    {
      "mesh": 6,
      "name": "Button_20069936"
    },
    {
      "children": [
        11
      ],
      "name": "ButtonHead",
      "rotation": [
        0.5807233452796936,
        -0.015033488161861897,
        0.07603922486305237,
        0.8104026317596436
      ],
      "scale": [
        0.6500000357627869,
        0.44745737314224243,
        0.6499999165534973
      ],
      "translation": [
        -0.005049780942499638,
        1.5311386585235596,
        0.0756942629814148
      ]
    },
    {
      "mesh": 7,
      "name": "Button_20119176"
    },
    {
      "children": [
        13
      ],
      "name": "ButtonHead",
      "rotation": [
        0.5995015501976013,
        -0.004665066953748465,
        0.024411527439951897,
        0.7999876737594604
      ],
      "scale": [
        0.6499999761581421,
        0.44745731353759766,
        0.6499999165534973
      ],
      "translation": [
        -0.0019955853931605816,
        1.4810515642166138,
        0.09167131781578064
      ]
    },
    {
      "mesh": 8,
      "name": "Button_20119663"
    },
    {
      "children": [
        15
      ],
      "name": "ButtonHead",
      "rotation": [
        0.5844843983650208,
        0.04569023847579956,
        -0.18347349762916565,
        0.7890676856040955
      ],
      "scale": [
        0.6499999165534973,
        0.44745734333992004,
        0.6499999761581421
      ],
      "translation": [
        0.005996993277221918,
        1.5762735605239868,
        0.04945952072739601
      ]
    },
    {
      "mesh": 9,
      "name": "Button_8092902"
    },
    {
      "children": [
        17
      ],
      "name": "ButtonHead",
      "rotation": [
        0.5741370916366577,
        -0.025933444499969482,
        -0.008497432805597782,
        0.8183042407035828
      ],
      "scale": [
        0.6499999761581421,
        0.44745737314224243,
        0.6499999165534973
      ],
      "translation": [
        -5.71580276300665e-05,
        1.5298818349838257,
        0.06851541250944138
      ]
    },
    {
      "mesh": 10,
      "name": "Button_8092924"
    },
    {
      "children": [
        19
      ],
      "name": "ButtonHead",
      "rotation": [
        0.5856502652168274,
        -0.02488059736788273,
        -0.005967248696833849,
        0.8101599216461182
      ],
      "scale": [
        0.6500000357627869,
        0.44745737314224243,
        0.6500000357627869
      ],
      "translation": [
        -0.002129344269633293,
        1.479358434677124,
        0.08702164143323898
      ]
    },
    {
      "mesh": 11,
      "name": "Button_8092946"
    }
  ],
  "scene": 0,
  "scenes": [
    {
      "nodes": [
        0
      ]
    }
  ]
}