{
  "accessors": [
    {
      "bufferView": 0,
      "componentType": 5125,
      "count": 4632,
      "max": [
        817
      ],
      "min": [
        0
      ],
      "type": "SCALAR"
    },
    {
      "bufferView": 1,
      "componentType": 5125,
      "count": 4632,
      "max": [
        1635
      ],
      "min": [
        818
      ],
      "type": "SCALAR"
    },
    {
      "bufferView": 2,
      "componentType": 5125,
      "count": 1296,
      "max": [
        1915
      ],
      "min": [
        1636
      ],
      "type": "SCALAR"
    },
    {
      "bufferView": 3,
      "componentType": 5126,
      "count": 1916,
      "max": [
        -0.1959778517484665,
        1.5577337741851807,
        0.11020831763744354
      ],
      "min": [
        -0.4573554992675781,
        0.9232258796691895,
        -0.13469718396663666
      ],
      "type": "VEC3"
    },
    {
      "bufferView": 4,
      "componentType": 5126,
      "count": 1916,
      "max": [
        0.99155193567276,
        0.9847320318222046,
        0.999419093132019
      ],
      "min": [
        -0.9936094880104065,
        -0.9910244345664978,
        -0.9994330406188965
      ],
      "type": "VEC3"
    },
    {
      "bufferView": 5,
      "componentType": 5126,
      "count": 1916,
      "max": [
        151.7125244140625,
        290.572021484375
      ],
      "min": [
        -175.1839599609375,
        -355.4503173828125
      ],
      "type": "VEC2"
    },
    {
      "bufferView": 6,
      "componentType": 5125,
      "count": 2769,
      "max": [
        502
      ],
      "min": [
        0
      ],
      "type": "SCALAR"
    },
    {
      "bufferView": 7,
      "componentType": 5125,
      "count": 2769,
      "max": [
        1005
      ],
      "min": [
        503
      ],
      "type": "SCALAR"
    },
    {
      "bufferView": 8,
      "componentType": 5125,
      "count": 972,
      "max": [
        1229
      ],
      "min": [
        1006
      ],
      "type": "SCALAR"
    },
    {
      "bufferView": 9,
      "componentType": 5126,
      "count": 1230,
      "max": [
        -0.18043138086795807,
        1.4544413089752197,
        0.08989973366260529
      ],
      "min": [
        -0.43090739846229553,
        0.8924639821052551,
        -0.13559706509113312
      ],
      "type": "VEC3"
    },
    {
      "bufferView": 10,
      "componentType": 5126,
      "count": 1230,
      "max": [
        0.9947256445884705,
        0.9942240715026855,
        0.9999657869338989
      ],
      "min": [
        -0.9974371790885925,
        -0.9992180466651917,
        -0.9999568462371826
      ],
      "type": "VEC3"
    },
    {
      "bufferView": 11,
      "componentType": 5126,
      "count": 1230,
      "max": [
        126.17825317382813,
        262.6890869140625
      ],
      "min": [
        -114.323974609375,
        -323.7139892578125
      ],
      "type": "VEC2"
    }
  ],
  "asset": {
    "generator": "CLO Standalone OnlineAuth 2025.0.426",
    "version": "2.0"
  },
  "bufferViews": [
    {
      "buffer": 0,
      "byteLength": 18528
    },
    {
      "buffer": 0,
      "byteLength": 18528,
      "byteOffset": 18528
    },
    {
      "buffer": 0,
      "byteLength": 5184,
      "byteOffset": 37056
    },
    {
      "buffer": 0,
      "byteLength": 22992,
      "byteOffset": 42240
    },
    {
      "buffer": 0,
      "byteLength": 22992,
      "byteOffset": 65232
    },
    {
      "buffer": 0,
      "byteLength": 15328,
      "byteOffset": 88224
    },
    {
      "buffer": 0,
      "byteLength": 11076,
      "byteOffset": 103552
    },
    {
      "buffer": 0,
      "byteLength": 11076,
      "byteOffset": 114628
    },
    {
      "buffer": 0,
      "byteLength": 3888,
      "byteOffset": 125704
    },
    {
      "buffer": 0,
      "byteLength": 14760,
      "byteOffset": 129592
    },
    {
      "buffer": 0,
      "byteLength": 14760,
      "byteOffset": 144352
    },
    {
      "buffer": 0,
      "byteLength": 9840,
      "byteOffset": 159112
    }
  ],
  "buffers": [
    {
      "byteLength": 168952,
      "uri": "data:application/octet-stream;base64,"
    }
  ],
  "extensionsUsed": [
    "KHR_materials_specular"
  ],
  "materials": [
    {
      "extensions": {
        "KHR_materials_specular": {
          "specularFactor": 0.15000000596046448
        }
      },
      "name": "FABRIC 1_2654119",
      "pbrMetallicRoughness": {
        "baseColorFactor": [
          0.6592240333557129,
          0.6592240333557129,
          0.6592240333557129,
          1.0
        ],
        "metallicFactor": 0.0,
        "roughnessFactor": 0.5
      }
    }
  ],
  "meshes": [
    {
      "name": "21",
      "primitives": [
        {
          "attributes": {
            "NORMAL": 4,
            "POSITION": 3,
            "TEXCOORD_0": 5
          },
          "indices": 0,
          "material": 0
        },
        {
          "attributes": {
            "NORMAL": 4,
            "POSITION": 3,
            "TEXCOORD_0": 5
          },
          "indices": 1,
          "material": 0
        },
        {
          "attributes": {
            "NORMAL": 4,
            "POSITION": 3,
            "TEXCOORD_0": 5
          },
          "indices": 2,
          "material": 0
        }
      ]
    },
    {
      "name": "22",
      "primitives": [
        {
          "attributes": {
            "NORMAL": 10,
            "POSITION": 9,
            "TEXCOORD_0": 11
          },
          "indices": 6,
          "material": 0
        },
        {
          "attributes": {
            "NORMAL": 10,
            "POSITION": 9,
            "TEXCOORD_0": 11
          },
          "indices": 7,
          "material": 0
        },
        {
          "attributes": {
            "NORMAL": 10,
            "POSITION": 9,
            "TEXCOORD_0": 11
          },
          "indices": 8,
          "material": 0
        }
      ]
    }
  ],
  "nodes": [
    {
      "children": [
        1
      ],
      "name": "Sleeves_Scene_Node"
    },
    {
      "children": [
        2,
        3
      ],
      "name": "Cloth"
    },
    {
      "mesh": 0,
      "name": "21"
    },
    {
      "mesh": 1,
      "name": "22"
    }
  ],
  "scene": 0,
  "scenes": [
    {
      "nodes": [
        0
      ]
    }
  ]
}