{
  "accessors": [
    {
      "bufferView": 0,
      "componentType": 5125,
      "count": 1413,
      "max": [
        261
      ],
      "min": [
        0
      ],
      "type": "SCALAR"
    },
    {
      "bufferView": 1,
      "componentType": 5125,
      "count": 1413,
      "max": [
        523
      ],
      "min": [
        262
      ],
      "type": "SCALAR"
    },
    {
      "bufferView": 2,
      "componentType": 5125,
      "count": 1476,
      "max": [
        845
      ],
      "min": [
        524
      ],
      "type": "SCALAR"
    },
    {
      "bufferView": 3,
      "componentType": 5126,
      "count": 846,
      "max": [
        -0.19597704708576202,
        1.557746171951294,
        0.041679784655570984
      ],
      "min": [
        -0.3504546582698822,
        1.287477970123291,
        -0.13145354390144348
      ],
      "type": "VEC3"
    },
    {
      "bufferView": 4,
      "componentType": 5126,
      "count": 846,
      "max": [
        0.9912097454071045,
        0.9844792485237122,
        0.9997105598449707
      ],
      "min": [
        -0.9972309470176697,
        -0.9755745530128479,
        -0.9998126029968262
      ],
      "type": "VEC3"
    },
    {
      "bufferView": 5,
      "componentType": 5126,
      "count": 846,
      "max": [
        151.7125244140625,
        -118.35400390625
      ],
      "min": [
        -172.9451904296875,
        -355.4501953125
      ],
      "type": "VEC2"
    },
    {
      "bufferView": 6,
      "componentType": 5125,
      "count": 2793,
      "max": [
        499
      ],
      "min": [
        0
      ],
      "type": "SCALAR"
    },
    {
      "bufferView": 7,
      "componentType": 5125,
      "count": 2793,
      "max": [
        999
      ],
      "min": [
        500
      ],
      "type": "SCALAR"
    },
    {
      "bufferView": 8,
      "componentType": 5125,
      "count": 432,
      "max": [
        1090
      ],
      "min": [
        1000
      ],
      "type": "SCALAR"
    },
    {
      "bufferView": 9,
      "componentType": 5126,
      "count": 1091,
      "max": [
        -0.20386826992034912,
        1.3348685503005981,
        0.1016438752412796
      ],
      "min": [
        -0.4397784471511841,
        0.9675148129463196,
        -0.13018357753753662
      ],
      "type": "VEC3"
    },
    {
      "bufferView": 10,
      "componentType": 5126,
      "count": 1091,
      "max": [
        0.9824246168136597,
        0.40520092844963074,
        0.9924037456512451
      ],
      "min": [
        -0.9922143220901489,
        -0.9760543704032898,
        -0.9890152215957642
      ],
      "type": "VEC3"
    },
    {
      "bufferView": 11,
      "componentType": 5126,
      "count": 1091,
      "max": [
        149.80029296875,
        239.111328125
      ],
      "min": [
        -173.748046875,
        -123.76953125
      ],
      "type": "VEC2"
    },
    {
      "bufferView": 12,
      "componentType": 5125,
      "count": 309,
      "max": [
        70
      ],
      "min": [
        0
      ],
      "type": "SCALAR"
    },
    {
      "bufferView": 13,
      "componentType": 5125,
      "count": 309,
      "max": [
        141
      ],
      "min": [
        71
      ],
      "type": "SCALAR"
    },
    {
      "bufferView": 14,
      "componentType": 5125,
      "count": 972,
      "max": [
        365
      ],
      "min": [
        142
      ],
      "type": "SCALAR"
    },
    {
      "bufferView": 15,
      "componentType": 5126,
      "count": 366,
      "max": [
        -0.18237505853176117,
        1.4544435739517212,
        -0.002580197062343359
      ],
      "min": [
        -0.3058377504348755,
        1.2579330205917358,
        -0.1313382089138031
      ],
      "type": "VEC3"
    },
    {
      "bufferView": 16,
      "componentType": 5126,
      "count": 366,
      "max": [
        0.9936970472335815,
        0.9767189621925354,
        0.9997174739837646
      ],
      "min": [
        -0.9882624745368958,
        -0.9928266406059265,
        -0.9997132420539856
      ],
      "type": "VEC3"
    },
    {
      "bufferView": 17,
      "componentType": 5126,
      "count": 366,
      "max": [
        110.9656982421875,
        -153.72607421875
      ],
      "min": [
        -101.2586669921875,
        -323.7138671875
      ],
      "type": "VEC2"
    },
    {
      "bufferView": 18,
      "componentType": 5125,
      "count": 1863,
      "max": [
        340
      ],
      "min": [
        0
      ],
      "type": "SCALAR"
    },
    {
      "bufferView": 19,
      "componentType": 5125,
      "count": 1863,
      "max": [
        681
      ],
      "min": [
        341
      ],
      "type": "SCALAR"
    },
    {
      "bufferView": 20,
      "componentType": 5125,
      "count": 324,
      "max": [
        751
      ],
      "min": [
        682
      ],
      "type": "SCALAR"
    },
    {
      "bufferView": 21,
      "componentType": 5126,
      "count": 752,
      "max": [
        -0.18773508071899414,
        1.2987315654754639,
        0.07614093273878098
      ],
      "min": [
        -0.4057777225971222,
        0.95225590467453,
        -0.13027504086494446
      ],
      "type": "VEC3"
    },
    {
      "bufferView": 22,
      "componentType": 5126,
      "count": 752,
      "max": [
        0.933599054813385,
        0.5806176662445068,
        0.9999765753746033
      ],
      "min": [
        -0.99931401014328,
        -0.9958248138427734,
        -0.999973475933075
      ],
      "type": "VEC3"
    },
    {
      "bufferView": 23,
      "componentType": 5126,
      "count": 752,
      "max": [
        115.97705078125,
        204.92236328125
      ],
      "min": [
        -101.0843505859375,
        -156.5751953125
      ],
      "type": "VEC2"
    }
  ],
  "asset": {
    "generator": "CLO Standalone OnlineAuth 2025.0.426",
    "version": "2.0"
  },
  "bufferViews": [
    {
      "buffer": 0,
      "byteLength": 5652
    },
    {
      "buffer": 0,
      "byteLength": 5652,
      "byteOffset": 5652
    },
    {
      "buffer": 0,
      "byteLength": 5904,
      "byteOffset": 11304
    },
    {
      "buffer": 0,
      "byteLength": 10152,
      "byteOffset": 17208
    },
    {
      "buffer": 0,
      "byteLength": 10152,
      "byteOffset": 27360
    },
    {
      "buffer": 0,
      "byteLength": 6768,
      "byteOffset": 37512
    },
    {
      "buffer": 0,
      "byteLength": 11172,
      "byteOffset": 44280
    },
    {
      "buffer": 0,
      "byteLength": 11172,
      "byteOffset": 55452
    },
    {
      "buffer": 0,
      "byteLength": 1728,
      "byteOffset": 66624
    },
    {
      "buffer": 0,
      "byteLength": 13092,
      "byteOffset": 68352
    },
    {
      "buffer": 0,
      "byteLength": 13092,
      "byteOffset": 81444
    },
    {
      "buffer": 0,
      "byteLength": 8728,
      "byteOffset": 94536
    },
    {
      "buffer": 0,
      "byteLength": 1236,
      "byteOffset": 103264
    },
    {
      "buffer": 0,
      "byteLength": 1236,
      "byteOffset": 104500
    },
    {
      "buffer": 0,
      "byteLength": 3888,
      "byteOffset": 105736
    },
    {
      "buffer": 0,
      "byteLength": 4392,
      "byteOffset": 109624
    },
    {
      "buffer": 0,
      "byteLength": 4392,
      "byteOffset": 114016
    },
    {
      "buffer": 0,
      "byteLength": 2928,
      "byteOffset": 118408
    },
    {
      "buffer": 0,
      "byteLength": 7452,
      "byteOffset": 121336
    },
    {
      "buffer": 0,
      "byteLength": 7452,
      "byteOffset": 128788
    },
    {
      "buffer": 0,
      "byteLength": 1296,
      "byteOffset": 136240
    },
    {
      "buffer": 0,
      "byteLength": 9024,
      "byteOffset": 137536
    },
    {
      "buffer": 0,
      "byteLength": 9024,
      "byteOffset": 146560
    },
    {
      "buffer": 0,
      "byteLength": 6016,
      "byteOffset": 155584
    }
  ],
  "buffers": [
    {
      "byteLength": 161600,
      "uri": "data:application/octet-stream;base64,"
    }
  ],
  "extensionsUsed": [
    "KHR_materials_specular"
  ],
  "materials": [
    {
      "extensions": {
        "KHR_materials_specular": {
          "specularFactor": 0.15000000596046448
        }
      },
      "name": "FABRIC 2_9113390",
      "pbrMetallicRoughness": {
        "baseColorFactor": [
          0.6592240333557129,
          0.6592240333557129,
          0.6592240333557129,
          1.0
        ],
        "metallicFactor": 0.0,
        "roughnessFactor": 0.5
      }
    }
  ],
  "meshes": [
    {
      "name": "40",
      "primitives": [
        {
          "attributes": {
            "NORMAL": 4,
            "POSITION": 3,
            "TEXCOORD_0": 5
          },
          "indices": 0,
          "material": 0
        },
        {
          "attributes": {
            "NORMAL": 4,
            "POSITION": 3,
            "TEXCOORD_0": 5
          },
          "indices": 1,
          "material": 0
        },
        {
          "attributes": {
            "NORMAL": 4,
            "POSITION": 3,
            "TEXCOORD_0": 5
          },
          "indices": 2,
          "material": 0
        }
      ]
    },
    {
      "name": "41",
      "primitives": [
        {
          "attributes": {
            "NORMAL": 10,
            "POSITION": 9,
            "TEXCOORD_0": 11
          },
          "indices": 6,
          "material": 0
        },
        {
          "attributes": {
            "NORMAL": 10,
            "POSITION": 9,
            "TEXCOORD_0": 11
          },
          "indices": 7,
          "material": 0
        },
        {
          "attributes": {
            "NORMAL": 10,
            "POSITION": 9,
            "TEXCOORD_0": 11
          },
          "indices": 8,
          "material": 0
        }
      ]
    },
    {
      "name": "42",
      "primitives": [
        {
          "attributes": {
            "NORMAL": 16,
            "POSITION": 15,
            "TEXCOORD_0": 17
          },
          "indices": 12,
          "material": 0
        },
        {
          "attributes": {
            "NORMAL": 16,
            "POSITION": 15,
            "TEXCOORD_0": 17
          },
          "indices": 13,
          "material": 0
        },
        {
          "attributes": {
            "NORMAL": 16,
            "POSITION": 15,
            "TEXCOORD_0": 17
          },
          "indices": 14,
          "material": 0
        }
      ]
    },
    {
      "name": "43",
      "primitives": [
        {
          "attributes": {
            "NORMAL": 22,
            "POSITION": 21,
            "TEXCOORD_0": 23
          },
          "indices": 18,
          "material": 0
        },
        {
          "attributes": {
            "NORMAL": 22,
            "POSITION": 21,
            "TEXCOORD_0": 23
          },
          "indices": 19,
          "material": 0
        },
        {
          "attributes": {
            "NORMAL": 22,
            "POSITION": 21,
            "TEXCOORD_0": 23
          },
          "indices": 20,
          "material": 0
        }
      ]
    }
  ],
  "nodes": [
    {
      "children": [
        1
      ],
      "name": "Sleeves 1392_Scene_Node"
    },
    {
      "children": [
        2,
        3,
        4,
        5
      ],
      "name": "Cloth"
    },
    {
      "mesh": 0,
      "name": "40"
    },
    {
      "mesh": 1,
      "name": "41"
    },
    {
      "mesh": 2,
      "name": "42"
    },
    {
      "mesh": 3,
      "name": "43"
    }
  ],
  "scene": 0,
  "scenes": [
    {
      "nodes": [
        0
      ]
    }
  ]
}