<svg width="9" height="10" viewBox="0 0 9 10" fill="none" xmlns="http://www.w3.org/2000/svg">
<mask id="mask0_26560_1274" style="mask-type:luminance" maskUnits="userSpaceOnUse" x="1" y="0" width="7" height="6">
<path d="M1.62095 0H7.29761V5.65338H1.62095V0Z" fill="white"/>
</mask>
<g mask="url(#mask0_26560_1274)">
<path d="M7.27314 2.81021C7.27314 4.36221 6.01829 5.61994 4.47007 5.61994C2.92207 5.61994 1.66678 4.36221 1.66678 2.81021C1.66678 1.25845 2.92207 0.000488281 4.47007 0.000488281C6.01829 0.000488281 7.27314 1.25845 7.27314 2.81021Z" fill="#BBBBBB"/>
</g>
<mask id="mask1_26560_1274" style="mask-type:luminance" maskUnits="userSpaceOnUse" x="0" y="5" width="9" height="5">
<path d="M1.90735e-06 5.42627H8.94051V9.99997H1.90735e-06V5.42627Z" fill="white"/>
</mask>
<g mask="url(#mask1_26560_1274)">
<path d="M4.47014 10.0014C6.21549 10.0014 7.79542 9.68857 8.94051 8.54348C8.94051 7.10192 7.5892 5.99696 6.28446 5.4375C5.81702 5.8974 5.17684 6.18123 4.47014 6.18123C3.76345 6.18123 3.12327 5.8974 2.65605 5.4375C1.35087 5.99696 1.90735e-06 7.03916 1.90735e-06 8.54348C1.14487 9.68857 2.72502 10.0014 4.47014 10.0014Z" fill="#BBBBBB"/>
</g>
</svg>
