<svg width="35" height="35" viewBox="0 0 35 35" fill="none" xmlns="http://www.w3.org/2000/svg">
<rect width="35" height="35" rx="10" fill="white"/>
<path d="M24.4308 11.2434C23.1561 10.6679 21.7892 10.2439 20.3599 10.001C20.3339 9.99633 20.3079 10.008 20.2945 10.0315C20.1187 10.3391 19.9239 10.7405 19.7876 11.056C18.2503 10.8295 16.721 10.8295 15.2153 11.056C15.0789 10.7335 14.8771 10.3391 14.7005 10.0315C14.6871 10.0088 14.6611 9.99711 14.635 10.001C13.2066 10.2431 11.8396 10.6671 10.5641 11.2434C10.5531 11.2481 10.5436 11.2559 10.5373 11.2661C7.94449 15.0776 7.23421 18.7954 7.58265 22.4672C7.58423 22.4852 7.59447 22.5023 7.60867 22.5133C9.31934 23.7494 10.9764 24.4998 12.6027 24.9973C12.6288 25.0051 12.6563 24.9957 12.6729 24.9746C13.0576 24.4577 13.4005 23.9126 13.6946 23.3394C13.7119 23.3059 13.6954 23.266 13.6599 23.2528C13.1159 23.0497 12.598 22.8022 12.0998 22.5211C12.0604 22.4984 12.0572 22.443 12.0935 22.4164C12.1983 22.3391 12.3032 22.2587 12.4033 22.1775C12.4214 22.1626 12.4466 22.1595 12.4679 22.1689C15.7411 23.6393 19.2846 23.6393 22.5191 22.1689C22.5404 22.1587 22.5657 22.1619 22.5846 22.1767C22.6847 22.2579 22.7895 22.3391 22.8952 22.4164C22.9314 22.443 22.9291 22.4984 22.8897 22.5211C22.3914 22.8076 21.8735 23.0497 21.3288 23.252C21.2933 23.2653 21.2775 23.3059 21.2949 23.3394C21.5952 23.9118 21.9381 24.4569 22.3157 24.9738C22.3315 24.9957 22.3599 25.0051 22.3859 24.9973C24.0201 24.4998 25.6772 23.7494 27.3879 22.5133C27.4028 22.5023 27.4123 22.4859 27.4139 22.468C27.8309 18.223 26.7154 14.5357 24.4568 11.2668C24.4513 11.2559 24.4419 11.2481 24.4308 11.2434ZM14.1834 20.2315C13.1979 20.2315 12.3859 19.3413 12.3859 18.248C12.3859 17.1548 13.1822 16.2646 14.1834 16.2646C15.1924 16.2646 15.9965 17.1626 15.9807 18.248C15.9807 19.3413 15.1845 20.2315 14.1834 20.2315ZM20.829 20.2315C19.8435 20.2315 19.0316 19.3413 19.0316 18.248C19.0316 17.1548 19.8278 16.2646 20.829 16.2646C21.838 16.2646 22.6421 17.1626 22.6264 18.248C22.6264 19.3413 21.838 20.2315 20.829 20.2315Z" fill="#121316"/>
</svg>
